<svg xmlns="http://www.w3.org/2000/svg" xmlns:xlink="http://www.w3.org/1999/xlink" width="15" zoomAndPan="magnify" viewBox="0 0 36 36.000001" height="15" preserveAspectRatio="xMidYMid meet" version="1.0"><defs><clipPath id="d9f95ab97a"><path d="M 14 2.359375 L 23 2.359375 L 23 11 L 14 11 Z M 14 2.359375 " clip-rule="nonzero"/></clipPath><clipPath id="9b580d0849"><path d="M 21 20 L 35.511719 20 L 35.511719 30 L 21 30 Z M 21 20 " clip-rule="nonzero"/></clipPath><clipPath id="337c76d9e4"><path d="M 21.496094 20.3125 L 35.496094 20.3125 L 35.496094 29.542969 L 21.496094 29.542969 Z M 21.496094 20.3125 " clip-rule="nonzero"/></clipPath><clipPath id="f2a3954c0d"><path d="M 1.214844 20 L 15 20 L 15 30 L 1.214844 30 Z M 1.214844 20 " clip-rule="nonzero"/></clipPath><clipPath id="87f09da404"><path d="M 1.214844 20 L 16 20 L 16 30 L 1.214844 30 Z M 1.214844 20 " clip-rule="nonzero"/></clipPath><clipPath id="196e861d41"><path d="M 11.117188 29.796875 L 25.625 29.796875 L 25.625 33.007812 L 11.117188 33.007812 Z M 11.117188 29.796875 " clip-rule="nonzero"/></clipPath></defs><path fill="#ffffff" d="M 17.28125 11.605469 L 19.882812 11.605469 C 21.609375 11.605469 23.148438 12.417969 24.152344 13.683594 C 24.207031 13.5625 24.269531 13.441406 24.335938 13.320312 C 23.265625 12.042969 21.667969 11.230469 19.882812 11.230469 L 17.28125 11.230469 C 15.28125 11.230469 13.511719 12.253906 12.460938 13.8125 C 12.53125 13.941406 12.59375 14.074219 12.648438 14.210938 C 13.613281 12.648438 15.328125 11.605469 17.28125 11.605469 " fill-opacity="1" fill-rule="nonzero"/><path fill="#ffffff" d="M 12.605469 13.820312 C 12.628906 13.863281 12.648438 13.90625 12.667969 13.949219 C 13.714844 12.398438 15.421875 11.480469 17.28125 11.480469 L 19.882812 11.480469 C 21.523438 11.480469 23.058594 12.199219 24.125 13.457031 C 24.144531 13.414062 24.164062 13.375 24.183594 13.335938 C 23.097656 12.074219 21.535156 11.355469 19.882812 11.355469 L 17.28125 11.355469 C 15.417969 11.355469 13.675781 12.277344 12.605469 13.820312 Z M 12.625 14.484375 L 12.535156 14.257812 C 12.480469 14.128906 12.417969 13.996094 12.351562 13.871094 L 12.316406 13.804688 L 12.359375 13.742188 C 13.472656 12.089844 15.3125 11.105469 17.28125 11.105469 L 19.882812 11.105469 C 21.636719 11.105469 23.292969 11.882812 24.429688 13.242188 L 24.484375 13.308594 L 24.441406 13.382812 C 24.378906 13.5 24.316406 13.617188 24.261719 13.738281 L 24.179688 13.921875 L 24.054688 13.761719 C 23.03125 12.472656 21.511719 11.730469 19.882812 11.730469 L 17.28125 11.730469 C 15.429688 11.730469 13.738281 12.683594 12.753906 14.277344 L 12.625 14.484375 " fill-opacity="1" fill-rule="nonzero"/><g clip-path="url(#d9f95ab97a)"><path fill="#ffffff" d="M 18.582031 2.859375 C 20.484375 2.859375 22.03125 4.421875 22.03125 6.339844 C 22.03125 8.261719 20.484375 9.824219 18.582031 9.824219 C 16.683594 9.824219 15.136719 8.261719 15.136719 6.339844 C 15.136719 4.421875 16.683594 2.859375 18.582031 2.859375 Z M 18.582031 10.199219 C 20.6875 10.199219 22.398438 8.46875 22.398438 6.339844 C 22.398438 4.214844 20.6875 2.484375 18.582031 2.484375 C 16.480469 2.484375 14.765625 4.214844 14.765625 6.339844 C 14.765625 8.46875 16.480469 10.199219 18.582031 10.199219 " fill-opacity="1" fill-rule="nonzero"/><path fill="#ffffff" d="M 18.582031 2.984375 C 16.753906 2.984375 15.261719 4.488281 15.261719 6.339844 C 15.261719 8.195312 16.753906 9.699219 18.582031 9.699219 C 20.414062 9.699219 21.90625 8.195312 21.90625 6.339844 C 21.90625 4.488281 20.414062 2.984375 18.582031 2.984375 Z M 18.582031 9.949219 C 16.617188 9.949219 15.015625 8.332031 15.015625 6.339844 C 15.015625 4.351562 16.617188 2.734375 18.582031 2.734375 C 20.550781 2.734375 22.152344 4.351562 22.152344 6.339844 C 22.152344 8.332031 20.550781 9.949219 18.582031 9.949219 Z M 18.582031 2.609375 C 16.546875 2.609375 14.890625 4.28125 14.890625 6.339844 C 14.890625 8.398438 16.546875 10.074219 18.582031 10.074219 C 20.621094 10.074219 22.277344 8.398438 22.277344 6.339844 C 22.277344 4.28125 20.621094 2.609375 18.582031 2.609375 Z M 18.582031 10.324219 C 16.410156 10.324219 14.644531 8.539062 14.644531 6.339844 C 14.644531 4.144531 16.410156 2.359375 18.582031 2.359375 C 20.757812 2.359375 22.523438 4.144531 22.523438 6.339844 C 22.523438 8.539062 20.757812 10.324219 18.582031 10.324219 " fill-opacity="1" fill-rule="nonzero"/></g><g clip-path="url(#9b580d0849)"><path fill="#ffffff" d="M 26.9375 20.839844 L 29.539062 20.839844 C 32.550781 20.839844 35 23.316406 35 26.359375 C 35 27.800781 33.839844 28.972656 32.414062 28.972656 L 26.113281 28.972656 C 26.128906 29.097656 26.140625 29.222656 26.152344 29.347656 L 32.414062 29.347656 C 34.042969 29.347656 35.371094 28.007812 35.371094 26.359375 C 35.371094 23.109375 32.753906 20.464844 29.539062 20.464844 L 26.9375 20.464844 C 24.683594 20.464844 22.722656 21.765625 21.753906 23.664062 C 21.871094 23.707031 21.988281 23.75 22.101562 23.796875 C 23.019531 22.039062 24.839844 20.839844 26.9375 20.839844 " fill-opacity="1" fill-rule="nonzero"/></g><g clip-path="url(#337c76d9e4)"><path fill="#ffffff" d="M 26.265625 29.222656 L 32.414062 29.222656 C 33.976562 29.222656 35.246094 27.9375 35.246094 26.359375 C 35.246094 23.175781 32.6875 20.589844 29.539062 20.589844 L 26.9375 20.589844 C 24.839844 20.589844 22.9375 21.738281 21.929688 23.59375 C 21.96875 23.609375 22.007812 23.625 22.046875 23.640625 C 23.03125 21.832031 24.894531 20.714844 26.9375 20.714844 L 29.539062 20.714844 C 32.617188 20.714844 35.121094 23.246094 35.121094 26.359375 C 35.121094 27.871094 33.90625 29.097656 32.414062 29.097656 L 26.253906 29.097656 C 26.257812 29.140625 26.261719 29.179688 26.265625 29.222656 Z M 32.414062 29.472656 L 26.039062 29.472656 L 26.03125 29.359375 C 26.019531 29.230469 26.003906 29.109375 25.988281 28.992188 L 25.96875 28.847656 L 32.414062 28.847656 C 33.769531 28.847656 34.875 27.730469 34.875 26.359375 C 34.875 23.382812 32.480469 20.964844 29.539062 20.964844 L 26.9375 20.964844 C 24.953125 20.964844 23.140625 22.070312 22.210938 23.855469 L 22.160156 23.953125 L 22.058594 23.914062 C 21.945312 23.867188 21.832031 23.824219 21.714844 23.785156 L 21.578125 23.738281 L 21.644531 23.609375 C 22.671875 21.589844 24.703125 20.339844 26.9375 20.339844 L 29.539062 20.339844 C 32.824219 20.339844 35.492188 23.039062 35.492188 26.359375 C 35.492188 28.078125 34.113281 29.472656 32.414062 29.472656 " fill-opacity="1" fill-rule="nonzero"/></g><path fill="#ffffff" d="M 25.21875 17.929688 C 25.269531 17.769531 25.304688 17.605469 25.324219 17.433594 C 24.988281 16.894531 24.792969 16.257812 24.792969 15.574219 C 24.792969 15.332031 24.816406 15.09375 24.863281 14.867188 C 24.789062 14.695312 24.707031 14.53125 24.613281 14.371094 C 24.488281 14.75 24.421875 15.15625 24.421875 15.574219 C 24.421875 16.460938 24.71875 17.277344 25.21875 17.929688 " fill-opacity="1" fill-rule="nonzero"/><path fill="#ffffff" d="M 24.648438 14.699219 C 24.582031 14.984375 24.546875 15.28125 24.546875 15.574219 C 24.546875 16.320312 24.757812 17.03125 25.164062 17.644531 C 25.179688 17.582031 25.1875 17.523438 25.195312 17.460938 C 24.851562 16.894531 24.667969 16.242188 24.667969 15.574219 C 24.667969 15.34375 24.691406 15.109375 24.734375 14.878906 C 24.707031 14.820312 24.679688 14.757812 24.648438 14.699219 Z M 25.261719 18.195312 L 25.121094 18.007812 C 24.582031 17.304688 24.296875 16.464844 24.296875 15.574219 C 24.296875 15.152344 24.363281 14.734375 24.496094 14.332031 L 24.582031 14.066406 L 24.71875 14.308594 C 24.8125 14.472656 24.902344 14.644531 24.976562 14.816406 L 24.992188 14.851562 L 24.984375 14.890625 C 24.941406 15.117188 24.917969 15.347656 24.917969 15.574219 C 24.917969 16.210938 25.09375 16.828125 25.429688 17.367188 L 25.453125 17.402344 L 25.449219 17.449219 C 25.425781 17.625 25.390625 17.800781 25.335938 17.96875 L 25.261719 18.195312 " fill-opacity="1" fill-rule="nonzero"/><path fill="#ffffff" d="M 28.238281 12.09375 C 30.136719 12.09375 31.683594 13.65625 31.683594 15.574219 C 31.683594 17.496094 30.136719 19.058594 28.238281 19.058594 C 27.195312 19.058594 26.261719 18.589844 25.628906 17.847656 C 25.59375 17.988281 25.550781 18.125 25.496094 18.253906 C 26.191406 18.980469 27.164062 19.433594 28.238281 19.433594 C 30.34375 19.433594 32.054688 17.703125 32.054688 15.574219 C 32.054688 13.449219 30.34375 11.71875 28.238281 11.71875 C 26.714844 11.71875 25.394531 12.625 24.785156 13.933594 C 24.867188 14.066406 24.945312 14.199219 25.019531 14.335938 C 25.515625 13.023438 26.769531 12.09375 28.238281 12.09375 " fill-opacity="1" fill-rule="nonzero"/><path fill="#ffffff" d="M 25.640625 18.226562 C 26.335938 18.925781 27.257812 19.308594 28.238281 19.308594 C 30.273438 19.308594 31.929688 17.632812 31.929688 15.574219 C 31.929688 13.519531 30.273438 11.84375 28.238281 11.84375 C 26.839844 11.84375 25.546875 12.660156 24.925781 13.925781 C 24.953125 13.96875 24.980469 14.011719 25.003906 14.054688 C 25.585938 12.796875 26.855469 11.96875 28.238281 11.96875 C 30.207031 11.96875 31.808594 13.585938 31.808594 15.574219 C 31.808594 17.566406 30.207031 19.183594 28.238281 19.183594 C 27.273438 19.183594 26.355469 18.789062 25.6875 18.09375 C 25.671875 18.136719 25.65625 18.183594 25.640625 18.226562 Z M 28.238281 19.558594 C 27.164062 19.558594 26.15625 19.128906 25.40625 18.34375 L 25.351562 18.285156 L 25.382812 18.207031 C 25.433594 18.082031 25.476562 17.949219 25.507812 17.816406 L 25.566406 17.582031 L 25.722656 17.765625 C 26.355469 18.507812 27.273438 18.933594 28.238281 18.933594 C 30.070312 18.933594 31.558594 17.429688 31.558594 15.574219 C 31.558594 13.722656 30.070312 12.21875 28.238281 12.21875 C 26.871094 12.21875 25.625 13.085938 25.136719 14.378906 L 25.039062 14.632812 L 24.910156 14.394531 C 24.84375 14.269531 24.769531 14.140625 24.679688 14.003906 L 24.644531 13.945312 L 24.671875 13.882812 C 25.320312 12.492188 26.722656 11.59375 28.238281 11.59375 C 30.410156 11.59375 32.179688 13.378906 32.179688 15.574219 C 32.179688 17.773438 30.410156 19.558594 28.238281 19.558594 " fill-opacity="1" fill-rule="nonzero"/><path fill="#ffffff" d="M 25.019531 14.335938 C 24.945312 14.199219 24.867188 14.066406 24.785156 13.933594 C 24.71875 14.078125 24.664062 14.222656 24.613281 14.371094 C 24.707031 14.53125 24.789062 14.695312 24.863281 14.867188 C 24.902344 14.683594 24.953125 14.503906 25.019531 14.335938 " fill-opacity="1" fill-rule="nonzero"/><path fill="#ffffff" d="M 24.75 14.355469 C 24.777344 14.40625 24.804688 14.457031 24.828125 14.507812 C 24.847656 14.453125 24.863281 14.398438 24.882812 14.34375 C 24.859375 14.296875 24.832031 14.25 24.804688 14.203125 C 24.785156 14.253906 24.765625 14.304688 24.75 14.355469 Z M 24.90625 15.269531 L 24.753906 14.917969 C 24.679688 14.753906 24.597656 14.589844 24.507812 14.433594 L 24.480469 14.382812 L 24.496094 14.332031 C 24.546875 14.175781 24.605469 14.027344 24.671875 13.882812 L 24.769531 13.679688 L 24.886719 13.867188 C 24.980469 14.011719 25.058594 14.144531 25.128906 14.273438 L 25.15625 14.324219 L 25.136719 14.378906 C 25.070312 14.546875 25.019531 14.71875 24.984375 14.890625 L 24.90625 15.269531 " fill-opacity="1" fill-rule="nonzero"/><path fill="#ffffff" d="M 25.324219 17.433594 C 25.304688 17.605469 25.269531 17.769531 25.21875 17.929688 C 25.304688 18.042969 25.398438 18.152344 25.496094 18.253906 C 25.550781 18.125 25.59375 17.988281 25.628906 17.847656 C 25.515625 17.714844 25.417969 17.578125 25.324219 17.433594 " fill-opacity="1" fill-rule="nonzero"/><path fill="#ffffff" d="M 25.355469 17.90625 C 25.386719 17.945312 25.417969 17.980469 25.449219 18.019531 C 25.464844 17.972656 25.480469 17.925781 25.492188 17.878906 C 25.460938 17.835938 25.425781 17.796875 25.394531 17.753906 C 25.382812 17.804688 25.371094 17.855469 25.355469 17.90625 Z M 25.539062 18.480469 L 25.40625 18.34375 C 25.304688 18.234375 25.207031 18.125 25.121094 18.007812 L 25.078125 17.953125 L 25.101562 17.890625 C 25.148438 17.738281 25.183594 17.582031 25.203125 17.417969 L 25.242188 17.066406 L 25.429688 17.367188 C 25.515625 17.503906 25.613281 17.640625 25.722656 17.765625 L 25.761719 17.8125 L 25.746094 17.875 C 25.710938 18.019531 25.664062 18.164062 25.609375 18.300781 L 25.539062 18.480469 " fill-opacity="1" fill-rule="nonzero"/><g clip-path="url(#f2a3954c0d)"><path fill="#ffffff" d="M 4.316406 29.226562 C 2.890625 29.226562 1.730469 28.054688 1.730469 26.609375 C 1.730469 23.566406 4.179688 21.089844 7.191406 21.089844 L 9.792969 21.089844 C 11.804688 21.089844 13.566406 22.199219 14.515625 23.84375 C 14.628906 23.792969 14.746094 23.746094 14.863281 23.703125 C 13.859375 21.921875 11.964844 20.714844 9.792969 20.714844 L 7.191406 20.714844 C 3.976562 20.714844 1.359375 23.359375 1.359375 26.609375 C 1.359375 28.257812 2.6875 29.601562 4.316406 29.601562 L 10.5625 29.601562 C 10.566406 29.476562 10.574219 29.351562 10.585938 29.226562 L 4.316406 29.226562 " fill-opacity="1" fill-rule="nonzero"/></g><g clip-path="url(#87f09da404)"><path fill="#ffffff" d="M 7.191406 20.839844 C 4.042969 20.839844 1.484375 23.429688 1.484375 26.609375 C 1.484375 28.191406 2.753906 29.476562 4.316406 29.476562 L 10.441406 29.476562 C 10.445312 29.433594 10.449219 29.390625 10.453125 29.351562 L 4.316406 29.351562 C 2.824219 29.351562 1.609375 28.121094 1.609375 26.609375 C 1.609375 23.5 4.113281 20.964844 7.191406 20.964844 L 9.792969 20.964844 C 11.734375 20.964844 13.554688 22.003906 14.566406 23.683594 C 14.605469 23.667969 14.640625 23.65625 14.683594 23.640625 C 13.648438 21.910156 11.789062 20.839844 9.792969 20.839844 Z M 10.679688 29.726562 L 4.316406 29.726562 C 2.617188 29.726562 1.238281 28.328125 1.238281 26.609375 C 1.238281 23.292969 3.90625 20.589844 7.191406 20.589844 L 9.792969 20.589844 C 11.925781 20.589844 13.910156 21.761719 14.96875 23.640625 L 15.042969 23.769531 L 14.90625 23.820312 C 14.785156 23.863281 14.671875 23.910156 14.5625 23.957031 L 14.460938 24 L 14.40625 23.90625 C 13.453125 22.246094 11.683594 21.214844 9.792969 21.214844 L 7.191406 21.214844 C 4.25 21.214844 1.855469 23.636719 1.855469 26.609375 C 1.855469 27.984375 2.960938 29.101562 4.316406 29.101562 L 10.722656 29.101562 L 10.710938 29.238281 C 10.699219 29.351562 10.691406 29.472656 10.683594 29.605469 L 10.679688 29.726562 " fill-opacity="1" fill-rule="nonzero"/></g><path fill="#ffffff" d="M 11.832031 16.800781 C 11.898438 16.542969 11.933594 16.277344 11.9375 16 C 11.882812 16.261719 11.847656 16.527344 11.832031 16.800781 " fill-opacity="1" fill-rule="nonzero"/><path fill="#ffffff" d="M 11.953125 16.832031 L 11.710938 16.792969 C 11.726562 16.515625 11.761719 16.242188 11.816406 15.976562 L 12.058594 16.003906 C 12.054688 16.285156 12.019531 16.5625 11.953125 16.832031 " fill-opacity="1" fill-rule="nonzero"/><path fill="#ffffff" d="M 8.492188 19.429688 C 6.59375 19.429688 5.046875 17.867188 5.046875 15.945312 C 5.046875 14.027344 6.59375 12.464844 8.492188 12.464844 C 10.085938 12.464844 11.433594 13.566406 11.824219 15.054688 C 11.890625 14.878906 11.960938 14.707031 12.042969 14.539062 C 11.488281 13.105469 10.105469 12.089844 8.492188 12.089844 C 6.386719 12.089844 4.675781 13.820312 4.675781 15.945312 C 4.675781 18.074219 6.386719 19.804688 8.492188 19.804688 C 9.789062 19.804688 10.9375 19.144531 11.628906 18.140625 C 11.570312 17.984375 11.527344 17.816406 11.496094 17.648438 C 10.90625 18.710938 9.78125 19.429688 8.492188 19.429688 " fill-opacity="1" fill-rule="nonzero"/><path fill="#ffffff" d="M 8.492188 12.214844 C 6.457031 12.214844 4.800781 13.886719 4.800781 15.945312 C 4.800781 18.003906 6.457031 19.679688 8.492188 19.679688 C 9.679688 19.679688 10.796875 19.097656 11.492188 18.121094 C 11.472656 18.074219 11.457031 18.023438 11.445312 17.972656 C 10.78125 18.957031 9.675781 19.554688 8.492188 19.554688 C 6.523438 19.554688 4.921875 17.9375 4.921875 15.945312 C 4.921875 13.957031 6.523438 12.339844 8.492188 12.339844 C 9.992188 12.339844 11.324219 13.289062 11.835938 14.691406 C 11.859375 14.636719 11.882812 14.585938 11.910156 14.53125 C 11.335938 13.121094 10 12.214844 8.492188 12.214844 Z M 8.492188 19.929688 C 6.320312 19.929688 4.550781 18.144531 4.550781 15.945312 C 4.550781 13.75 6.320312 11.964844 8.492188 11.964844 C 10.121094 11.964844 11.5625 12.957031 12.160156 14.492188 L 12.179688 14.542969 L 12.15625 14.59375 C 12.078125 14.757812 12.003906 14.925781 11.9375 15.097656 L 11.800781 15.464844 L 11.703125 15.085938 C 11.320312 13.617188 9.996094 12.589844 8.492188 12.589844 C 6.660156 12.589844 5.171875 14.09375 5.171875 15.945312 C 5.171875 17.796875 6.660156 19.304688 8.492188 19.304688 C 9.691406 19.304688 10.800781 18.644531 11.390625 17.585938 L 11.558594 17.28125 L 11.621094 17.625 C 11.648438 17.789062 11.691406 17.949219 11.746094 18.097656 L 11.765625 18.160156 L 11.730469 18.214844 C 10.992188 19.289062 9.78125 19.929688 8.492188 19.929688 " fill-opacity="1" fill-rule="nonzero"/><path fill="#ffffff" d="M 11.832031 16.800781 C 11.828125 16.910156 11.824219 17.015625 11.824219 17.125 C 11.824219 17.324219 11.847656 17.515625 11.886719 17.703125 C 12.15625 17.175781 12.308594 16.578125 12.308594 15.945312 C 12.308594 15.648438 12.273438 15.359375 12.210938 15.082031 C 12.09375 15.378906 12 15.683594 11.9375 16 C 11.933594 16.277344 11.898438 16.542969 11.832031 16.800781 " fill-opacity="1" fill-rule="nonzero"/><path fill="#ffffff" d="M 11.957031 16.820312 C 11.949219 16.933594 11.945312 17.03125 11.945312 17.125 C 11.945312 17.167969 11.949219 17.210938 11.949219 17.257812 C 12.105469 16.839844 12.183594 16.398438 12.183594 15.945312 C 12.183594 15.828125 12.179688 15.707031 12.167969 15.585938 C 12.125 15.730469 12.089844 15.871094 12.058594 16.015625 C 12.054688 16.289062 12.019531 16.558594 11.957031 16.820312 Z M 11.84375 18.066406 L 11.769531 17.730469 C 11.722656 17.527344 11.699219 17.324219 11.699219 17.125 C 11.699219 17.023438 11.703125 16.914062 11.710938 16.792969 L 11.710938 16.769531 C 11.773438 16.519531 11.808594 16.261719 11.8125 16 L 11.816406 15.976562 C 11.878906 15.660156 11.976562 15.34375 12.097656 15.035156 L 12.242188 14.664062 L 12.332031 15.054688 C 12.398438 15.347656 12.433594 15.648438 12.433594 15.945312 C 12.433594 16.582031 12.285156 17.195312 12 17.761719 L 11.84375 18.066406 " fill-opacity="1" fill-rule="nonzero"/><path fill="#ffffff" d="M 11.9375 15.945312 C 11.9375 15.964844 11.9375 15.984375 11.9375 16 C 12 15.683594 12.09375 15.378906 12.210938 15.082031 C 12.167969 14.894531 12.113281 14.714844 12.042969 14.539062 C 11.960938 14.707031 11.890625 14.878906 11.824219 15.054688 C 11.898438 15.339844 11.9375 15.640625 11.9375 15.945312 " fill-opacity="1" fill-rule="nonzero"/><path fill="#ffffff" d="M 11.953125 15.0625 C 11.972656 15.136719 11.988281 15.214844 12.003906 15.292969 C 12.027344 15.21875 12.054688 15.144531 12.082031 15.074219 C 12.066406 15.007812 12.046875 14.941406 12.027344 14.875 C 12.003906 14.9375 11.976562 15 11.953125 15.0625 Z M 12.058594 16.027344 L 11.8125 16 L 11.8125 15.945312 C 11.8125 15.65625 11.777344 15.367188 11.703125 15.085938 L 11.695312 15.050781 L 11.707031 15.011719 C 11.773438 14.832031 11.851562 14.652344 11.933594 14.484375 L 12.058594 14.226562 L 12.160156 14.492188 C 12.230469 14.675781 12.289062 14.863281 12.332031 15.054688 L 12.339844 15.09375 L 12.328125 15.128906 C 12.210938 15.421875 12.121094 15.726562 12.058594 16.027344 " fill-opacity="1" fill-rule="nonzero"/><path fill="#ffffff" d="M 11.824219 17.125 C 11.824219 17.015625 11.828125 16.910156 11.832031 16.800781 C 11.757812 17.101562 11.644531 17.382812 11.496094 17.648438 C 11.527344 17.816406 11.570312 17.984375 11.628906 18.140625 C 11.722656 18.003906 11.8125 17.855469 11.886719 17.703125 C 11.847656 17.515625 11.824219 17.324219 11.824219 17.125 " fill-opacity="1" fill-rule="nonzero"/><path fill="#ffffff" d="M 11.628906 17.667969 C 11.640625 17.730469 11.652344 17.789062 11.667969 17.847656 C 11.699219 17.796875 11.730469 17.742188 11.757812 17.6875 C 11.742188 17.617188 11.730469 17.546875 11.722656 17.480469 C 11.691406 17.542969 11.660156 17.605469 11.628906 17.667969 Z M 11.59375 18.410156 L 11.511719 18.183594 C 11.453125 18.019531 11.40625 17.847656 11.375 17.667969 L 11.367188 17.625 L 11.390625 17.585938 C 11.535156 17.328125 11.640625 17.054688 11.710938 16.769531 L 11.957031 16.808594 C 11.949219 16.925781 11.945312 17.027344 11.945312 17.125 C 11.945312 17.304688 11.96875 17.488281 12.007812 17.675781 L 12.019531 17.71875 L 12 17.761719 C 11.917969 17.917969 11.828125 18.070312 11.730469 18.214844 L 11.59375 18.410156 " fill-opacity="1" fill-rule="nonzero"/><path fill="#ffffff" d="M 25.425781 28.972656 C 25.445312 29.097656 25.460938 29.222656 25.472656 29.347656 L 26.152344 29.347656 C 26.140625 29.222656 26.128906 29.097656 26.113281 28.972656 L 25.425781 28.972656 " fill-opacity="1" fill-rule="nonzero"/><path fill="#ffffff" d="M 25.582031 29.222656 L 26.015625 29.222656 C 26.011719 29.179688 26.007812 29.140625 26.003906 29.097656 L 25.566406 29.097656 C 25.574219 29.140625 25.578125 29.179688 25.582031 29.222656 Z M 26.289062 29.472656 L 25.359375 29.472656 L 25.347656 29.359375 C 25.335938 29.234375 25.320312 29.109375 25.300781 28.992188 L 25.28125 28.847656 L 26.21875 28.847656 L 26.234375 28.957031 C 26.25 29.078125 26.265625 29.203125 26.277344 29.339844 L 26.289062 29.472656 " fill-opacity="1" fill-rule="nonzero"/><path fill="#ffffff" d="M 17.0625 24.378906 L 19.667969 24.378906 C 20.019531 24.378906 20.363281 24.414062 20.699219 24.480469 C 20.734375 24.359375 20.773438 24.238281 20.8125 24.117188 C 20.441406 24.042969 20.058594 24.003906 19.667969 24.003906 L 17.0625 24.003906 C 16.640625 24.003906 16.226562 24.050781 15.828125 24.140625 C 15.875 24.253906 15.917969 24.375 15.957031 24.492188 C 16.3125 24.417969 16.683594 24.378906 17.0625 24.378906 " fill-opacity="1" fill-rule="nonzero"/><path fill="#ffffff" d="M 15.996094 24.230469 C 16.007812 24.269531 16.023438 24.308594 16.039062 24.351562 C 16.375 24.285156 16.71875 24.253906 17.0625 24.253906 L 19.667969 24.253906 C 19.980469 24.253906 20.296875 24.28125 20.613281 24.335938 C 20.625 24.292969 20.636719 24.253906 20.652344 24.214844 C 20.324219 24.15625 19.996094 24.128906 19.667969 24.128906 L 17.0625 24.128906 C 16.707031 24.128906 16.347656 24.164062 15.996094 24.230469 Z M 15.875 24.636719 L 15.839844 24.535156 C 15.800781 24.414062 15.757812 24.296875 15.710938 24.1875 L 15.65625 24.046875 L 15.800781 24.015625 C 16.21875 23.925781 16.640625 23.878906 17.0625 23.878906 L 19.667969 23.878906 C 20.058594 23.878906 20.453125 23.917969 20.839844 23.996094 L 20.980469 24.023438 L 20.929688 24.160156 C 20.890625 24.269531 20.855469 24.382812 20.816406 24.515625 L 20.785156 24.621094 L 20.675781 24.601562 C 20.339844 24.535156 20 24.503906 19.667969 24.503906 L 17.0625 24.503906 C 16.699219 24.503906 16.335938 24.542969 15.980469 24.617188 L 15.875 24.636719 " fill-opacity="1" fill-rule="nonzero"/><path fill="#ffffff" d="M 22.539062 32.511719 L 14.191406 32.511719 C 12.894531 32.511719 11.824219 31.546875 11.636719 30.289062 L 11.257812 30.289062 C 11.449219 31.753906 12.691406 32.886719 14.191406 32.886719 L 22.539062 32.886719 C 24.125 32.886719 25.421875 31.621094 25.492188 30.035156 L 25.121094 30.035156 C 25.046875 31.414062 23.921875 32.511719 22.539062 32.511719 " fill-opacity="1" fill-rule="nonzero"/><g clip-path="url(#196e861d41)"><path fill="#ffffff" d="M 11.402344 30.414062 C 11.648438 31.761719 12.820312 32.761719 14.191406 32.761719 L 22.539062 32.761719 C 24.015625 32.761719 25.230469 31.632812 25.359375 30.160156 L 25.234375 30.160156 C 25.101562 31.558594 23.941406 32.636719 22.539062 32.636719 L 14.191406 32.636719 C 12.898438 32.636719 11.773438 31.6875 11.53125 30.414062 Z M 22.539062 33.011719 L 14.191406 33.011719 C 12.648438 33.011719 11.335938 31.847656 11.136719 30.304688 L 11.117188 30.164062 L 11.742188 30.164062 L 11.757812 30.269531 C 11.9375 31.476562 12.984375 32.386719 14.191406 32.386719 L 22.539062 32.386719 C 23.847656 32.386719 24.925781 31.351562 24.996094 30.03125 L 25.003906 29.910156 L 25.625 29.910156 L 25.617188 30.042969 C 25.542969 31.707031 24.191406 33.011719 22.539062 33.011719 " fill-opacity="1" fill-rule="nonzero"/></g><path fill="#ffffff" d="M 25.046875 28.972656 L 25.425781 28.972656 C 25.101562 26.898438 23.703125 25.183594 21.824219 24.425781 C 21.78125 24.539062 21.742188 24.660156 21.707031 24.78125 C 23.4375 25.488281 24.726562 27.066406 25.046875 28.972656 " fill-opacity="1" fill-rule="nonzero"/><path fill="#ffffff" d="M 25.152344 28.847656 L 25.277344 28.847656 C 24.933594 26.960938 23.652344 25.347656 21.898438 24.589844 C 21.882812 24.628906 21.871094 24.667969 21.859375 24.707031 C 23.558594 25.445312 24.808594 27.015625 25.152344 28.847656 Z M 25.570312 29.097656 L 24.945312 29.097656 L 24.925781 28.996094 C 24.621094 27.164062 23.367188 25.59375 21.660156 24.894531 L 21.554688 24.851562 L 21.585938 24.742188 C 21.625 24.617188 21.664062 24.496094 21.707031 24.378906 L 21.753906 24.261719 L 21.871094 24.308594 C 23.8125 25.09375 25.222656 26.875 25.546875 28.953125 L 25.570312 29.097656 " fill-opacity="1" fill-rule="nonzero"/><path fill="#ffffff" d="M 25.125 29.898438 C 25.125 29.945312 25.121094 29.988281 25.121094 30.035156 L 25.492188 30.035156 C 25.496094 29.992188 25.496094 29.945312 25.496094 29.898438 C 25.496094 29.714844 25.488281 29.53125 25.472656 29.347656 L 25.097656 29.347656 C 25.117188 29.53125 25.125 29.714844 25.125 29.898438 " fill-opacity="1" fill-rule="nonzero"/><path fill="#ffffff" d="M 25.25 29.910156 L 25.375 29.910156 C 25.375 29.90625 25.375 29.902344 25.375 29.898438 C 25.375 29.757812 25.367188 29.621094 25.355469 29.472656 L 25.234375 29.472656 C 25.246094 29.617188 25.25 29.757812 25.25 29.898438 C 25.25 29.902344 25.25 29.90625 25.25 29.910156 Z M 25.613281 30.160156 L 24.988281 30.160156 L 25 29.984375 C 25 29.953125 25.003906 29.925781 25.003906 29.898438 C 25.003906 29.722656 24.992188 29.539062 24.976562 29.359375 L 24.960938 29.222656 L 25.582031 29.222656 L 25.59375 29.335938 C 25.613281 29.53125 25.621094 29.714844 25.621094 29.898438 C 25.621094 29.945312 25.621094 29.992188 25.617188 30.042969 L 25.613281 30.160156 " fill-opacity="1" fill-rule="nonzero"/><path fill="#ffffff" d="M 21.355469 24.652344 C 21.390625 24.53125 21.433594 24.410156 21.476562 24.296875 C 21.261719 24.222656 21.039062 24.164062 20.8125 24.117188 C 20.773438 24.238281 20.734375 24.359375 20.699219 24.480469 C 20.921875 24.523438 21.140625 24.578125 21.355469 24.652344 " fill-opacity="1" fill-rule="nonzero"/><path fill="#ffffff" d="M 20.855469 24.382812 C 20.996094 24.414062 21.136719 24.453125 21.277344 24.492188 C 21.289062 24.453125 21.300781 24.414062 21.316406 24.375 C 21.175781 24.332031 21.035156 24.296875 20.894531 24.265625 C 20.882812 24.304688 20.867188 24.34375 20.855469 24.382812 Z M 21.4375 24.808594 L 21.316406 24.769531 C 21.109375 24.699219 20.890625 24.644531 20.675781 24.601562 L 20.539062 24.574219 L 20.578125 24.441406 C 20.621094 24.308594 20.660156 24.1875 20.699219 24.074219 L 20.734375 23.976562 L 20.839844 23.996094 C 21.0625 24.042969 21.289062 24.101562 21.515625 24.175781 L 21.636719 24.21875 L 21.589844 24.339844 C 21.550781 24.453125 21.511719 24.570312 21.476562 24.6875 L 21.4375 24.808594 " fill-opacity="1" fill-rule="nonzero"/><path fill="#ffffff" d="M 21.707031 24.78125 C 21.742188 24.660156 21.78125 24.539062 21.824219 24.425781 C 21.710938 24.378906 21.59375 24.335938 21.476562 24.296875 C 21.433594 24.410156 21.390625 24.53125 21.355469 24.652344 C 21.476562 24.691406 21.589844 24.734375 21.707031 24.78125 " fill-opacity="1" fill-rule="nonzero"/><path fill="#ffffff" d="M 21.511719 24.570312 C 21.550781 24.585938 21.589844 24.601562 21.628906 24.613281 C 21.640625 24.574219 21.652344 24.535156 21.667969 24.496094 C 21.628906 24.480469 21.589844 24.46875 21.550781 24.453125 C 21.535156 24.492188 21.523438 24.53125 21.511719 24.570312 Z M 21.785156 24.949219 L 21.660156 24.894531 C 21.546875 24.851562 21.433594 24.808594 21.316406 24.769531 L 21.203125 24.730469 L 21.238281 24.613281 C 21.273438 24.492188 21.316406 24.371094 21.359375 24.25 L 21.402344 24.140625 L 21.515625 24.175781 C 21.628906 24.214844 21.75 24.257812 21.871094 24.308594 L 21.984375 24.351562 L 21.941406 24.46875 C 21.898438 24.578125 21.859375 24.695312 21.824219 24.816406 L 21.785156 24.949219 " fill-opacity="1" fill-rule="nonzero"/><path fill="#ffffff" d="M 25.046875 28.972656 C 25.070312 29.097656 25.085938 29.222656 25.097656 29.347656 L 25.472656 29.347656 C 25.460938 29.222656 25.445312 29.097656 25.425781 28.972656 L 25.046875 28.972656 " fill-opacity="1" fill-rule="nonzero"/><path fill="#ffffff" d="M 25.210938 29.222656 L 25.332031 29.222656 C 25.328125 29.179688 25.324219 29.140625 25.316406 29.097656 L 25.191406 29.097656 C 25.199219 29.140625 25.203125 29.183594 25.210938 29.222656 Z M 25.605469 29.472656 L 24.988281 29.472656 L 24.976562 29.359375 C 24.964844 29.246094 24.949219 29.128906 24.925781 28.996094 L 24.902344 28.847656 L 25.53125 28.847656 L 25.546875 28.953125 C 25.566406 29.078125 25.582031 29.207031 25.59375 29.335938 L 25.605469 29.472656 " fill-opacity="1" fill-rule="nonzero"/><path fill="#ffffff" d="M 14.953125 24.808594 C 14.914062 24.691406 14.867188 24.574219 14.820312 24.457031 C 12.910156 25.265625 11.515625 27.070312 11.273438 29.226562 L 11.644531 29.226562 C 11.886719 27.230469 13.183594 25.5625 14.953125 24.808594 " fill-opacity="1" fill-rule="nonzero"/><path fill="#ffffff" d="M 11.414062 29.101562 L 11.539062 29.101562 C 11.808594 27.183594 13.042969 25.53125 14.796875 24.742188 C 14.78125 24.699219 14.769531 24.660156 14.753906 24.625 C 12.949219 25.433594 11.683594 27.128906 11.414062 29.101562 Z M 11.753906 29.351562 L 11.132812 29.351562 L 11.148438 29.210938 C 11.394531 27.050781 12.78125 25.183594 14.773438 24.34375 L 14.886719 24.292969 L 14.933594 24.410156 C 14.980469 24.515625 15.023438 24.632812 15.070312 24.769531 L 15.109375 24.878906 L 15 24.921875 C 13.238281 25.671875 12 27.328125 11.769531 29.242188 L 11.753906 29.351562 " fill-opacity="1" fill-rule="nonzero"/><path fill="#ffffff" d="M 11.605469 29.898438 C 11.605469 29.796875 11.605469 29.699219 11.613281 29.601562 L 11.242188 29.601562 C 11.234375 29.699219 11.234375 29.796875 11.234375 29.898438 C 11.234375 30.03125 11.242188 30.160156 11.257812 30.289062 L 11.636719 30.289062 C 11.617188 30.160156 11.605469 30.03125 11.605469 29.898438 " fill-opacity="1" fill-rule="nonzero"/><path fill="#ffffff" d="M 11.371094 30.164062 L 11.496094 30.164062 C 11.484375 30.070312 11.480469 29.984375 11.480469 29.898438 C 11.480469 29.839844 11.480469 29.78125 11.484375 29.726562 L 11.359375 29.726562 C 11.359375 29.78125 11.355469 29.839844 11.355469 29.898438 C 11.355469 29.984375 11.363281 30.074219 11.371094 30.164062 Z M 11.78125 30.414062 L 11.152344 30.414062 L 11.136719 30.304688 C 11.117188 30.164062 11.109375 30.027344 11.109375 29.898438 C 11.109375 29.796875 11.113281 29.695312 11.117188 29.59375 L 11.121094 29.476562 L 11.742188 29.476562 L 11.734375 29.609375 C 11.730469 29.703125 11.726562 29.800781 11.726562 29.898438 C 11.726562 30.011719 11.738281 30.128906 11.757812 30.269531 L 11.78125 30.414062 " fill-opacity="1" fill-rule="nonzero"/><path fill="#ffffff" d="M 15.300781 24.675781 C 15.511719 24.601562 15.734375 24.539062 15.957031 24.492188 C 15.917969 24.375 15.875 24.253906 15.828125 24.140625 C 15.601562 24.1875 15.382812 24.25 15.167969 24.324219 C 15.214844 24.441406 15.257812 24.558594 15.300781 24.675781 " fill-opacity="1" fill-rule="nonzero"/><path fill="#ffffff" d="M 15.332031 24.402344 C 15.347656 24.441406 15.359375 24.476562 15.375 24.519531 C 15.515625 24.472656 15.65625 24.433594 15.792969 24.402344 C 15.78125 24.363281 15.765625 24.324219 15.75 24.285156 C 15.609375 24.316406 15.46875 24.355469 15.332031 24.402344 Z M 15.222656 24.835938 L 15.183594 24.71875 C 15.136719 24.585938 15.097656 24.476562 15.054688 24.375 L 15.003906 24.25 L 15.128906 24.207031 C 15.347656 24.128906 15.574219 24.066406 15.800781 24.015625 L 15.902344 23.996094 L 15.941406 24.089844 C 15.988281 24.207031 16.03125 24.328125 16.074219 24.453125 L 16.117188 24.585938 L 15.980469 24.617188 C 15.773438 24.660156 15.554688 24.71875 15.339844 24.792969 L 15.222656 24.835938 " fill-opacity="1" fill-rule="nonzero"/><path fill="#ffffff" d="M 15.300781 24.675781 C 15.257812 24.558594 15.214844 24.441406 15.167969 24.324219 C 15.050781 24.367188 14.933594 24.410156 14.820312 24.457031 C 14.867188 24.574219 14.914062 24.691406 14.953125 24.808594 C 15.066406 24.761719 15.183594 24.714844 15.300781 24.675781 " fill-opacity="1" fill-rule="nonzero"/><path fill="#ffffff" d="M 14.980469 24.527344 C 14.996094 24.566406 15.011719 24.605469 15.027344 24.644531 C 15.0625 24.628906 15.101562 24.613281 15.140625 24.601562 C 15.128906 24.558594 15.113281 24.519531 15.097656 24.484375 C 15.058594 24.496094 15.019531 24.511719 14.980469 24.527344 Z M 14.878906 24.976562 L 14.835938 24.851562 C 14.792969 24.722656 14.75 24.609375 14.707031 24.507812 L 14.65625 24.390625 L 14.773438 24.34375 C 14.878906 24.296875 14.996094 24.253906 15.128906 24.207031 L 15.238281 24.167969 L 15.28125 24.277344 C 15.324219 24.382812 15.371094 24.5 15.417969 24.636719 L 15.457031 24.753906 L 15.339844 24.792969 C 15.210938 24.839844 15.101562 24.882812 15 24.921875 L 14.878906 24.976562 " fill-opacity="1" fill-rule="nonzero"/><path fill="#ffffff" d="M 11.644531 29.226562 L 11.273438 29.226562 C 11.257812 29.351562 11.246094 29.472656 11.242188 29.601562 L 11.613281 29.601562 C 11.621094 29.472656 11.632812 29.351562 11.644531 29.226562 " fill-opacity="1" fill-rule="nonzero"/><path fill="#ffffff" d="M 11.371094 29.476562 L 11.496094 29.476562 C 11.5 29.433594 11.503906 29.394531 11.507812 29.351562 L 11.382812 29.351562 C 11.378906 29.394531 11.375 29.433594 11.371094 29.476562 Z M 11.730469 29.726562 L 11.109375 29.726562 L 11.117188 29.59375 C 11.121094 29.476562 11.132812 29.351562 11.148438 29.210938 L 11.164062 29.101562 L 11.785156 29.101562 L 11.769531 29.242188 C 11.753906 29.378906 11.742188 29.496094 11.734375 29.605469 L 11.730469 29.726562 " fill-opacity="1" fill-rule="nonzero"/><path fill="#ffffff" d="M 18.367188 22.597656 C 16.808594 22.597656 15.492188 21.550781 15.066406 20.113281 L 14.679688 20.113281 C 15.117188 21.757812 16.601562 22.972656 18.367188 22.972656 C 20.128906 22.972656 21.613281 21.757812 22.050781 20.113281 L 21.664062 20.113281 C 21.238281 21.550781 19.921875 22.597656 18.367188 22.597656 " fill-opacity="1" fill-rule="nonzero"/><path fill="#ffffff" d="M 14.84375 20.238281 C 15.328125 21.785156 16.75 22.847656 18.367188 22.847656 C 19.980469 22.847656 21.402344 21.785156 21.886719 20.238281 L 21.757812 20.238281 C 21.28125 21.707031 19.898438 22.722656 18.367188 22.722656 C 16.832031 22.722656 15.449219 21.707031 14.972656 20.238281 Z M 18.367188 23.097656 C 16.585938 23.097656 15.019531 21.886719 14.558594 20.148438 L 14.519531 19.988281 L 15.15625 19.988281 L 15.183594 20.078125 C 15.601562 21.488281 16.910156 22.472656 18.367188 22.472656 C 19.820312 22.472656 21.128906 21.488281 21.546875 20.078125 L 21.574219 19.988281 L 22.210938 19.988281 L 22.171875 20.148438 C 21.710938 21.886719 20.144531 23.097656 18.367188 23.097656 " fill-opacity="1" fill-rule="nonzero"/><path fill="#ffffff" d="M 18.367188 15.257812 C 16.261719 15.257812 14.546875 16.988281 14.546875 19.117188 C 14.546875 19.328125 14.566406 19.535156 14.597656 19.738281 L 14.976562 19.738281 C 14.941406 19.535156 14.917969 19.328125 14.917969 19.117188 C 14.917969 17.195312 16.464844 15.632812 18.367188 15.632812 C 20.265625 15.632812 21.8125 17.195312 21.8125 19.117188 C 21.8125 19.328125 21.789062 19.535156 21.753906 19.738281 L 22.132812 19.738281 C 22.164062 19.535156 22.183594 19.328125 22.183594 19.117188 C 22.183594 16.988281 20.46875 15.257812 18.367188 15.257812 " fill-opacity="1" fill-rule="nonzero"/><path fill="#ffffff" d="M 21.898438 19.613281 L 22.023438 19.613281 C 22.046875 19.449219 22.058594 19.28125 22.058594 19.117188 C 22.058594 17.058594 20.402344 15.382812 18.367188 15.382812 C 16.328125 15.382812 14.671875 17.058594 14.671875 19.117188 C 14.671875 19.28125 14.683594 19.449219 14.707031 19.613281 L 14.832031 19.613281 C 14.808594 19.449219 14.796875 19.28125 14.796875 19.117188 C 14.796875 17.125 16.398438 15.507812 18.367188 15.507812 C 20.332031 15.507812 21.933594 17.125 21.933594 19.117188 C 21.933594 19.28125 21.921875 19.449219 21.898438 19.613281 Z M 22.238281 19.863281 L 21.605469 19.863281 L 21.632812 19.71875 C 21.667969 19.515625 21.6875 19.3125 21.6875 19.117188 C 21.6875 17.265625 20.195312 15.757812 18.367188 15.757812 C 16.535156 15.757812 15.042969 17.265625 15.042969 19.117188 C 15.042969 19.3125 15.0625 19.515625 15.097656 19.71875 L 15.125 19.863281 L 14.492188 19.863281 L 14.476562 19.757812 C 14.441406 19.546875 14.425781 19.328125 14.425781 19.117188 C 14.425781 16.917969 16.191406 15.132812 18.367188 15.132812 C 20.539062 15.132812 22.304688 16.917969 22.304688 19.117188 C 22.304688 19.328125 22.289062 19.546875 22.253906 19.757812 L 22.238281 19.863281 " fill-opacity="1" fill-rule="nonzero"/><path fill="#ffffff" d="M 14.976562 19.738281 L 14.597656 19.738281 C 14.621094 19.867188 14.644531 19.992188 14.679688 20.113281 L 15.066406 20.113281 C 15.027344 19.992188 15 19.867188 14.976562 19.738281 " fill-opacity="1" fill-rule="nonzero"/><path fill="#ffffff" d="M 14.773438 19.988281 L 14.902344 19.988281 C 14.894531 19.949219 14.882812 19.90625 14.875 19.863281 L 14.746094 19.863281 C 14.757812 19.90625 14.765625 19.949219 14.773438 19.988281 Z M 15.230469 20.238281 L 14.585938 20.238281 L 14.558594 20.148438 C 14.527344 20.019531 14.496094 19.890625 14.476562 19.757812 L 14.453125 19.613281 L 15.078125 19.613281 L 15.097656 19.71875 C 15.121094 19.839844 15.148438 19.960938 15.183594 20.078125 L 15.230469 20.238281 " fill-opacity="1" fill-rule="nonzero"/><path fill="#ffffff" d="M 21.664062 20.113281 L 22.050781 20.113281 C 22.085938 19.992188 22.109375 19.867188 22.132812 19.738281 L 21.753906 19.738281 C 21.730469 19.867188 21.703125 19.992188 21.664062 20.113281 " fill-opacity="1" fill-rule="nonzero"/><path fill="#ffffff" d="M 21.828125 19.988281 L 21.957031 19.988281 C 21.964844 19.949219 21.972656 19.90625 21.984375 19.863281 L 21.855469 19.863281 C 21.847656 19.90625 21.839844 19.949219 21.828125 19.988281 Z M 22.144531 20.238281 L 21.5 20.238281 L 21.546875 20.078125 C 21.582031 19.960938 21.609375 19.839844 21.632812 19.71875 L 21.652344 19.613281 L 22.277344 19.613281 L 22.253906 19.757812 C 22.230469 19.890625 22.203125 20.019531 22.171875 20.148438 L 22.144531 20.238281 " fill-opacity="1" fill-rule="nonzero"/></svg>